<svg xmlns="http://www.w3.org/2000/svg" viewBox="0 0 280 240" fill="none">
  <ellipse cx="140" cy="219" rx="77" ry="11" fill="#173F3820"/>
  <path d="M67 151C35 153 32 179 51 186M213 151c33-5 39 20 22 29" stroke="#173F38" stroke-width="12" stroke-linecap="round"/>
  <path d="M76 150C49 158 43 172 51 180m152-26c25-4 35 9 31 19" stroke="#64B99C" stroke-width="12" stroke-linecap="round"/>
  <path d="m103 190-7 21m81-21 9 21" stroke="#173F38" stroke-width="16" stroke-linecap="round"/>
  <rect x="77" y="120" width="125" height="79" rx="30" fill="#1E7967" stroke="#173F38" stroke-width="5"/>
  <path d="M94 161h20m-10-10v20" stroke="#E9F3BE" stroke-width="5" stroke-linecap="round"/>
  <circle cx="174" cy="158" r="7" fill="#F9BF72"/>
  <circle cx="155" cy="175" r="4" fill="#94D4B6"/>
  <path d="M139 49V29" stroke="#173F38" stroke-width="5" stroke-linecap="round"/>
  <circle cx="139" cy="24" r="10" fill="#F2B956" stroke="#173F38" stroke-width="4"/>
  <rect x="54" y="56" width="16" height="39" rx="8" fill="#EF957C" stroke="#173F38" stroke-width="4"/>
  <rect x="210" y="56" width="16" height="39" rx="8" fill="#EF957C" stroke="#173F38" stroke-width="4"/>
  <rect x="65" y="45" width="150" height="95" rx="35" fill="#9ED9BD" stroke="#173F38" stroke-width="5"/>
  <path d="M82 63c3-5 9-8 15-8h28" stroke="#DFF4DC" stroke-width="7" stroke-linecap="round"/>
  <rect x="87" y="69" width="106" height="48" rx="20" fill="#173F38"/>
  <path d="M109 89v9m60-9v9" stroke="#F5EBAE" stroke-width="8" stroke-linecap="round"/>
  <path d="M130 99q10 10 20 0" stroke="#F5EBAE" stroke-width="4" stroke-linecap="round"/>
  <circle cx="99" cy="105" r="5" fill="#EF957C" opacity=".8"/>
  <circle cx="182" cy="105" r="5" fill="#EF957C" opacity=".8"/>
  <path d="m239 28 3 10 10 3-10 3-3 10-3-10-10-3 10-3 3-10Z" fill="#E49272"/>
  <path d="m35 110 2 7 8 3-8 2-2 8-3-8-7-2 7-3 3-7Z" fill="#E6B953"/>
</svg>
